<svg width="62" height="52" viewBox="0 0 62 52" fill="none" xmlns="http://www.w3.org/2000/svg">
<g clip-path="url(#clip0_22_335)">
<path d="M28.6159 30.7273V44.9091C28.6159 46.8788 27.9205 48.553 26.5296 49.9318C25.1388 51.3106 23.45 52 21.4631 52H7.15763C5.17075 52 3.48191 51.3106 2.0911 49.9318C0.700289 48.553 0.00488281 46.8788 0.00488281 44.9091V18.9091C0.00488281 16.3485 0.50781 13.9048 1.51367 11.5781C2.51952 9.25142 3.87929 7.23864 5.59297 5.53977C7.30664 3.84091 9.33698 2.4929 11.684 1.49574C14.031 0.49858 16.4959 0 19.0789 0H21.4631C22.1089 0 22.6677 0.233901 23.1395 0.701705C23.6114 1.16951 23.8474 1.72348 23.8474 2.36364V7.09091C23.8474 7.73106 23.6114 8.28504 23.1395 8.75284C22.6677 9.22064 22.1089 9.45455 21.4631 9.45455H19.0789C16.4463 9.45455 14.1986 10.3778 12.3359 12.2244C10.4732 14.071 9.54188 16.2992 9.54188 18.9091V20.0909C9.54188 21.0758 9.88958 21.9129 10.585 22.6023C11.2804 23.2917 12.1248 23.6364 13.1183 23.6364H21.4631C23.45 23.6364 25.1388 24.3258 26.5296 25.7045C27.9205 27.0833 28.6159 28.7576 28.6159 30.7273ZM61.9953 30.7273V44.9091C61.9953 46.8788 61.2999 48.553 59.9091 49.9318C58.5183 51.3106 56.8295 52 54.8426 52H40.5371C38.5502 52 36.8614 51.3106 35.4706 49.9318C34.0798 48.553 33.3844 46.8788 33.3844 44.9091V18.9091C33.3844 16.3485 33.8873 13.9048 34.8931 11.5781C35.899 9.25142 37.2588 7.23864 38.9724 5.53977C40.6861 3.84091 42.7165 2.4929 45.0635 1.49574C47.4105 0.49858 49.8754 0 52.4584 0H54.8426C55.4883 0 56.0471 0.233901 56.519 0.701705C56.9909 1.16951 57.2269 1.72348 57.2269 2.36364V7.09091C57.2269 7.73106 56.9909 8.28504 56.519 8.75284C56.0471 9.22064 55.4883 9.45455 54.8426 9.45455H52.4584C49.8257 9.45455 47.5781 10.3778 45.7154 12.2244C43.8527 14.071 42.9214 16.2992 42.9214 18.9091V20.0909C42.9214 21.0758 43.2691 21.9129 43.9645 22.6023C44.6599 23.2917 45.5043 23.6364 46.4977 23.6364H54.8426C56.8295 23.6364 58.5183 24.3258 59.9091 25.7045C61.2999 27.0833 61.9953 28.7576 61.9953 30.7273Z" fill="white"/>
</g>
<defs>
<clipPath id="clip0_22_335">
<rect width="62" height="52" fill="white"/>
</clipPath>
</defs>
</svg>
