<svg width="180" height="28" viewBox="0 0 180 28" fill="none" xmlns="http://www.w3.org/2000/svg">
<path d="M0.790119 27V0.818181H10.6083C12.6197 0.818181 14.3072 1.19318 15.6708 1.94318C17.043 2.69318 18.0785 3.72443 18.7773 5.03693C19.4847 6.34091 19.8384 7.82386 19.8384 9.4858C19.8384 11.1648 19.4847 12.6562 18.7773 13.9602C18.07 15.2642 17.0259 16.2912 15.6452 17.0412C14.2646 17.7827 12.5643 18.1534 10.5444 18.1534H4.03728V14.2543H9.90518C11.0813 14.2543 12.0444 14.0497 12.7944 13.6406C13.5444 13.2315 14.0984 12.669 14.4563 11.9531C14.8228 11.2372 15.006 10.4148 15.006 9.4858C15.006 8.55682 14.8228 7.73864 14.4563 7.03125C14.0984 6.32386 13.5401 5.77415 12.7816 5.3821C12.0316 4.98153 11.0643 4.78125 9.87961 4.78125H5.53302V27H0.790119ZM23.3223 27H18.2598L27.4772 0.818181H33.3323L42.5624 27H37.4999L30.507 6.1875H30.3024L23.3223 27ZM23.4885 16.7344H37.2953V20.544H23.4885V16.7344ZM61.2402 9.17898C61.0271 8.48864 60.7331 7.87074 60.3581 7.32528C59.9916 6.77131 59.5484 6.29829 59.0286 5.90625C58.5172 5.5142 57.9291 5.22017 57.2644 5.02415C56.5996 4.8196 55.8751 4.71733 55.0911 4.71733C53.6848 4.71733 52.432 5.07102 51.3325 5.77841C50.2331 6.48579 49.368 7.52557 48.7374 8.89773C48.1152 10.2614 47.8041 11.9233 47.8041 13.8835C47.8041 15.8608 48.1152 17.5355 48.7374 18.9077C49.3595 20.2798 50.2246 21.3239 51.3325 22.0398C52.4405 22.7472 53.7274 23.1009 55.1933 23.1009C56.5229 23.1009 57.6734 22.8452 58.645 22.3338C59.6251 21.8224 60.3794 21.098 60.9078 20.1605C61.4362 19.2145 61.7004 18.1065 61.7004 16.8366L62.7743 17.0028H55.6663V13.2955H66.2899V16.4403C66.2899 18.6818 65.8126 20.6207 64.8581 22.2571C63.9036 23.8935 62.5911 25.1548 60.9206 26.0412C59.2501 26.919 57.3325 27.358 55.1678 27.358C52.7558 27.358 50.6379 26.8168 48.8141 25.7344C46.9987 24.6435 45.5797 23.0966 44.557 21.0938C43.5428 19.0824 43.0357 16.696 43.0357 13.9347C43.0357 11.821 43.334 9.93324 43.9305 8.27131C44.5357 6.60938 45.3794 5.19886 46.4618 4.03977C47.5442 2.87216 48.8141 1.98579 50.2715 1.38068C51.7288 0.767045 53.3141 0.460226 55.0271 0.460226C56.476 0.460226 57.8269 0.673295 59.0797 1.09943C60.3325 1.51704 61.4448 2.11364 62.4163 2.8892C63.3965 3.66477 64.2019 4.58523 64.8325 5.65057C65.4632 6.71591 65.8766 7.89205 66.0726 9.17898H61.2402ZM69.7962 27V0.818181H86.8246V4.79403H74.5391V11.902H85.9425V15.8778H74.5391V23.0241H86.9269V27H69.7962ZM90.5834 27V0.818181H100.606C102.498 0.818181 104.071 1.11648 105.323 1.71307C106.585 2.30114 107.527 3.10653 108.149 4.12926C108.779 5.15199 109.095 6.31108 109.095 7.60653C109.095 8.67187 108.89 9.58381 108.481 10.3423C108.072 11.0923 107.522 11.7017 106.832 12.1705C106.142 12.6392 105.37 12.9759 104.518 13.1804V13.4361C105.447 13.4872 106.338 13.7727 107.19 14.2926C108.051 14.804 108.754 15.5284 109.299 16.4659C109.845 17.4034 110.117 18.5369 110.117 19.8665C110.117 21.2216 109.789 22.4403 109.133 23.5227C108.477 24.5966 107.488 25.4446 106.167 26.0668C104.846 26.6889 103.184 27 101.181 27H90.5834ZM95.3263 23.0369H100.427C102.149 23.0369 103.389 22.7088 104.147 22.0526C104.914 21.3878 105.298 20.5355 105.298 19.4957C105.298 18.7202 105.106 18.0213 104.723 17.3991C104.339 16.7685 103.794 16.2741 103.086 15.9162C102.379 15.5497 101.535 15.3665 100.555 15.3665H95.3263V23.0369ZM95.3263 11.9531H100.018C100.836 11.9531 101.573 11.804 102.23 11.5057C102.886 11.1989 103.402 10.7685 103.777 10.2145C104.16 9.65199 104.352 8.98722 104.352 8.22017C104.352 7.20596 103.994 6.37074 103.278 5.71449C102.571 5.05824 101.518 4.73011 100.12 4.73011H95.3263V11.9531ZM129.668 0.818181H134.411V17.9233C134.411 19.7983 133.968 21.4474 133.081 22.8707C132.203 24.294 130.968 25.4062 129.374 26.2074C127.78 27 125.918 27.3963 123.787 27.3963C121.648 27.3963 119.781 27 118.188 26.2074C116.594 25.4062 115.358 24.294 114.48 22.8707C113.602 21.4474 113.164 19.7983 113.164 17.9233V0.818181H117.906V17.527C117.906 18.6179 118.145 19.5895 118.622 20.4418C119.108 21.294 119.79 21.9631 120.668 22.4489C121.546 22.9261 122.585 23.1648 123.787 23.1648C124.989 23.1648 126.029 22.9261 126.906 22.4489C127.793 21.9631 128.475 21.294 128.952 20.4418C129.429 19.5895 129.668 18.6179 129.668 17.527V0.818181ZM138 27V24.0469L151.423 4.79403H137.923V0.818181H157.304V3.77131L143.894 23.0241H157.381V27H138ZM160.404 27V24.0469L173.828 4.79403H160.328V0.818181H179.708V3.77131L166.298 23.0241H179.785V27H160.404Z" fill="url(#paint0_linear_2041_240)"/>
<defs>
<linearGradient id="paint0_linear_2041_240" x1="-2" y1="14" x2="182" y2="14" gradientUnits="userSpaceOnUse">
<stop stop-color="white"/>
<stop offset="1" stop-color="#767585"/>
</linearGradient>
</defs>
</svg>
